<svg width="1280" height="640" viewBox="0 0 1280 640" fill="none" xmlns="http://www.w3.org/2000/svg">
  <rect width="1280" height="640" rx="24" fill="#0B1020"/>
  <rect x="40" y="40" width="1200" height="560" rx="24" fill="url(#bg)"/>
  <rect x="72" y="88" width="184" height="34" rx="17" fill="#1E293B" stroke="#334155"/>
  <text x="104" y="110" fill="#94A3B8" font-family="Inter, Arial, sans-serif" font-size="18">prototype</text>
  <text x="72" y="200" fill="#F8FAFC" font-family="Inter, Arial, sans-serif" font-size="64" font-weight="700">HR Agent Team</text>
  <text x="72" y="250" fill="#CBD5E1" font-family="Inter, Arial, sans-serif" font-size="28">Resume Screener → Candidate Coordinator → Hiring Ops Tracker</text>
  <text x="72" y="295" fill="#94A3B8" font-family="Inter, Arial, sans-serif" font-size="24">Minimal hiring loop prototype with Feishu update</text>

  <rect x="72" y="380" width="250" height="120" rx="20" fill="#111827" stroke="#334155"/>
  <text x="100" y="430" fill="#F8FAFC" font-family="Inter, Arial, sans-serif" font-size="28" font-weight="600">Resume</text>
  <text x="100" y="466" fill="#94A3B8" font-family="Inter, Arial, sans-serif" font-size="20">screening</text>

  <rect x="366" y="380" width="250" height="120" rx="20" fill="#111827" stroke="#334155"/>
  <text x="394" y="430" fill="#F8FAFC" font-family="Inter, Arial, sans-serif" font-size="28" font-weight="600">Candidate</text>
  <text x="394" y="466" fill="#94A3B8" font-family="Inter, Arial, sans-serif" font-size="20">coordination</text>

  <rect x="660" y="380" width="250" height="120" rx="20" fill="#111827" stroke="#334155"/>
  <text x="688" y="430" fill="#F8FAFC" font-family="Inter, Arial, sans-serif" font-size="28" font-weight="600">Hiring Ops</text>
  <text x="688" y="466" fill="#94A3B8" font-family="Inter, Arial, sans-serif" font-size="20">tracking</text>

  <rect x="954" y="380" width="214" height="120" rx="20" fill="#111827" stroke="#334155"/>
  <text x="982" y="430" fill="#F8FAFC" font-family="Inter, Arial, sans-serif" font-size="28" font-weight="600">Feishu</text>
  <text x="982" y="466" fill="#94A3B8" font-family="Inter, Arial, sans-serif" font-size="20">update</text>

  <path d="M322 440H366" stroke="#64748B" stroke-width="4" stroke-linecap="round"/>
  <path d="M616 440H660" stroke="#64748B" stroke-width="4" stroke-linecap="round"/>
  <path d="M910 440H954" stroke="#64748B" stroke-width="4" stroke-linecap="round"/>

  <defs>
    <linearGradient id="bg" x1="40" y1="40" x2="1240" y2="600" gradientUnits="userSpaceOnUse">
      <stop stop-color="#111827"/>
      <stop offset="1" stop-color="#0F172A"/>
    </linearGradient>
  </defs>
</svg>
